# xmcd CD database file
#
# Track frame offsets:
#	150
#	16987
#	32325
#
# Disc length: 653 seconds
#
# Revision: 3
# Processed by: cddbd v1.5.2PL0 Copyright (c) Steve Scherf et al.
# Submitted via: CDex 1.82
#
DISCID=14028b03
DTITLE=Maki Goto - Daite yo! Please Go On
DYEAR=2003
DGENRE=Jpop
TTITLE0=Daite yo! Please Go On
TTITLE1=Ofuzake KISS
TTITLE2=Daite yo! Please Go On (Instrumental)
EXTD=YEAR: 2003
EXTT0=
EXTT1=
EXTT2=
PLAYORDER=
